<svg xmlns="http://www.w3.org/2000/svg" width="90.62" height="60.13" viewBox="0 0 90.62 60.13">
    <defs>
        <style>
            .cls-1{fill:none}.cls-2{fill:#efc825}
        </style>
    </defs>
    <g id="Layer_2" data-name="Layer 2">
        <g id="Layer_1" data-name="Layer 1">
            <g id="baseline-star-24px">
                <path id="Path_6969" d="M22.31 0l23.18 6.22-6.21 23.18-23.19-6.22z" class="cls-1" data-name="Path 6969"/>
                <path id="Path_6970" d="M29.43 19.79l5 5.2.24-7.21 6.5-3.16-6.79-2.45-1-7.17L29 10.72l-7.1-1.28 4 6-3.41 6.36z" class="cls-2" data-name="Path 6970"/>
                <path id="Path_6971" d="M22.31 0l23.18 6.22-6.21 23.18-23.19-6.22z" class="cls-1" data-name="Path 6971"/>
            </g>
            <g id="baseline-star-24px-2">
                <path id="Path_6969-2" d="M0 27.51l32.62-10 10 32.62-32.62 10z" class="cls-1" data-name="Path 6969-2"/>
                <path id="Path_6970-2" d="M23.48 46l10 2.49-5.15-8.87 5.45-8.7-10 2.16-6.58-7.84-1.12 10.18-9.52 3.82 9.38 4.16.69 10.23z" class="cls-2" data-name="Path 6970-2"/>
                <path id="Path_6971-2" d="M0 27.51l32.62-10 10 32.62-32.62 10z" class="cls-1" data-name="Path 6971-2"/>
            </g>
            <g id="baseline-star-24px-3">
                <path id="Path_6969-3" d="M35.94 1.06L89.71.15l.91 53.76-53.76.92z" class="cls-1" data-name="Path 6969-3"/>
                <path id="Path_6970-3" d="M63.48 39.29l14 8.12-3.95-15.68 12-10.81-16.08-1.09L62.9 5.09l-6 15-16.12 1.59 12.41 10.4-3.41 15.8z" class="cls-2" data-name="Path 6970-3"/>
                <path id="Path_6971-3" d="M35.94 1.06L89.71.15l.91 53.76-53.76.92z" class="cls-1" data-name="Path 6971-3"/>
            </g>
        </g>
    </g>
</svg>
