<svg id="Layer_1" data-name="Layer 1" xmlns="http://www.w3.org/2000/svg" viewBox="0 0 197.9 43.17"><defs><style>.cls-1{fill:#0f1638;}.cls-2{fill:#17dad4;}</style></defs><title>Logo - Primary Colours</title><g id="Layer_2" data-name="Layer 2"><g id="Layer_1-2" data-name="Layer 1-2"><path class="cls-1" d="M5.08,34.13V20.21H0V11.7H5.08V3.28h9.73v8.39H21v8.51H14.81V31.37c0,1.78,1,3.11,2.73,3.11A3.83,3.83,0,0,0,20,33.72l1.9,7.37c-1.2,1.15-3.62,2-7.24,2C8.49,43.16,5.08,40,5.08,34.13Z"/><path class="cls-1" d="M46.65,38.71A14,14,0,0,1,36,43.16c-7,0-10.1-3.94-10.1-9.6V11.7h9.78V29.56c0,3.68,1.91,5,5.09,5a7.39,7.39,0,0,0,5.85-3V11.7H56.4V42.39H46.65Z"/><path class="cls-1" d="M100.66,23.71c0-2.35-1.14-4.13-4.06-4.13a7.07,7.07,0,0,0-5.53,3V42.4H81.28V23.71c0-2.35-1.08-4.13-4.07-4.13a7.16,7.16,0,0,0-5.46,3V42.4H62V11.7h9.79v3.75a13.57,13.57,0,0,1,10.1-4.51c4.39,0,7.44,1.84,8.71,5.46a13.24,13.24,0,0,1,10.61-5.46c5.66,0,9.22,2.92,9.22,9.21V42.39H100.7Z"/><path class="cls-1" d="M130.28,10.94c9.09,0,15.7,6.67,15.7,17.09v2.1H124.12c.57,2.86,3.24,5.46,7.81,5.46a12.15,12.15,0,0,0,7.5-2.6l4.13,6.1c-3,2.73-8.13,4.07-12.83,4.07C121.26,43.16,114,37,114,27a15.85,15.85,0,0,1,15.6-16.08ZM124,23.77h12.65c-.26-2.16-1.85-5.27-6.36-5.27A6.06,6.06,0,0,0,124,23.77Z"/><path class="cls-1" d="M150.17,0H160V42.39h-9.79Z"/><path class="cls-2" d="M164.41,27c0-8.64,6.29-16.07,16.71-16.07S197.9,18.37,197.9,27s-6.23,16.15-16.78,16.15S164.41,35.66,164.41,27Zm23.45,0c0-4.06-2.41-7.43-6.74-7.43S174.49,23,174.49,27s2.36,7.5,6.61,7.5S187.86,31.15,187.86,27Z"/></g></g></svg>